<svg xmlns="http://www.w3.org/2000/svg" width="700" height="700"><g transform="matrix(1 0 0 -1 350 350)"><circle r="340"/><path fill="none" stroke="#fff" stroke-linecap="round" stroke-linejoin="round" stroke-width="18.341" d="M-120.667-228.789C-205.543-184.029-264.333-101.083-264.333 0c0 145.987 117.425 266 264.333 266 146.908 0 267.25-118.402 267.25-266 0-125.704-86.817-235.509-210.208-262.271a36.934 36.934 0 0 0-8.042-.887c-20.711 0-37.5 16.79-37.5 37.5 0 17.612 12.261 32.848 29.459 36.614C129.954-169.815 189.75-89.281 189.75 0c0 104.796-87.025 186-189.75 186S-181 99.963-181 0c0-88.918 83.798-156 181-156 86.157 5 151 72.605 151 156S80.634 146 0 146c-66.028 0-140.963-52.274-140.963-146 0-17.972 8.937-65.681 44.687-65.681 23.045 0 33.003 26.74 33.003 43.785 0 21.69-.89 24.564-.395 27.113C-59.949 40.323-33.161 66 0 66c44.306 0 68.372-37.603 68.372-66 0-15.247-3.493-28.823-12.547-41.092m-155.78 22.808c-1.042 7.087-2.644 12.85-2.644 18.284 0 67.484 53.9 106 102.599 106 62.266 0 109.708-47.985 109.708-106 0-43.717-23.56-90.14-59.353-90.14-23.546 0-35.876 22.62-35.876 51.912 0 8.489 2.498 16.79 7.182 23.864A25.945 25.945 0 0 1 26 0c0 14.36-11.64 26-26 26S-26 14.36-26 0v-225.658c0-41.421 33.58-75 75-75 5.41 0 10.804.595 16.083 1.773C205.673-268.357 306-143.918 306 0c0 168.999-137.001 306-306 306S-306 168.999-306 0c0-113.515 62.842-217.701 163.248-270.652a47.315 47.315 0 0 1 22.086-5.47c26.14 0 47.332 21.191 47.332 47.333a47.334 47.334 0 0 1-25.247 41.864C-167.929-150.358-222.667-85.165-222.667 0c0 122.975 97.851 226 222.667 226S228.5 126.197 228.5 0c0-107.493-73.307-202.662-179.5-225.658"/></g></svg>